<svg id="Layer_1" data-name="Layer 1" xmlns="http://www.w3.org/2000/svg" viewBox="0 0 24 24"><path d="M0,.5A.5.5,0,0,1,.5,0h23a.5.5,0,0,1,.5.5v2a.5.5,0,0,1-.5.5H.5A.5.5,0,0,1,0,2.5Z"/><path d="M10,8a1,1,0,0,1,1-1H23a1,1,0,0,1,1,1V9a1,1,0,0,1-1,1H11a1,1,0,0,1-1-1Z"/><path d="M11,14a1,1,0,0,0-1,1v1a1,1,0,0,0,1,1H23a1,1,0,0,0,1-1V15a1,1,0,0,0-1-1Z"/><path d="M0,22a1,1,0,0,1,1-1H23a1,1,0,0,1,1,1v1a1,1,0,0,1-1,1H1a1,1,0,0,1-1-1Z"/><path d="M6.1,9.168l.744.809h0a.593.593,0,0,1,.115.186.622.622,0,0,1,0,.439.582.582,0,0,1-.115.186l-.8.877-.445.487L5.36,12.4,3.129,14.832a.517.517,0,0,1-.171.124.481.481,0,0,1-.4,0,.517.517,0,0,1-.171-.124L.155,12.4a.6.6,0,0,1-.115-.186.622.622,0,0,1,0-.439.582.582,0,0,1,.115-.186l.742-.81a.517.517,0,0,1,.171-.124.486.486,0,0,1,.4,0,.5.5,0,0,1,.17.124l.743.81a.532.532,0,0,0,.171.124.491.491,0,0,0,.4,0,.532.532,0,0,0,.171-.124L4,10.639l.1-.108.46-.5.049-.054.744-.809a.5.5,0,0,1,.17-.124.483.483,0,0,1,.4,0A.5.5,0,0,1,6.1,9.168Z"/></svg>