<?xml version="1.0" encoding="utf-8"?>
<!-- Generator: Adobe Illustrator 25.2.3, SVG Export Plug-In . SVG Version: 6.00 Build 0)  -->
<svg version="1.1" id="Layer_1" xmlns="http://www.w3.org/2000/svg" xmlns:xlink="http://www.w3.org/1999/xlink" x="0px" y="0px"
	 viewBox="0 0 24 24" style="enable-background:new 0 0 24 24;" xml:space="preserve">
<path d="M1,0C0.4,0,0,0.4,0,1v2c0,0.6,0.4,1,1,1h22c0.6,0,1-0.4,1-1V1c0-0.6-0.4-1-1-1H1z"/>
<path d="M11,10c-0.6,0-1,0.4-1,1v2c0,0.6,0.4,1,1,1h12c0.6,0,1-0.4,1-1v-2c0-0.6-0.4-1-1-1H11z"/>
<path d="M0,21c0-0.6,0.4-1,1-1h22c0.6,0,1,0.4,1,1v2c0,0.6-0.4,1-1,1H1c-0.6,0-1-0.4-1-1V21z"/>
<path d="M6.1,9.2L6.8,10h0c0,0.1,0.1,0.1,0.1,0.2c0,0.1,0,0.1,0,0.2s0,0.1,0,0.2c0,0.1-0.1,0.1-0.1,0.2L6,11.7l-0.4,0.5l-0.2,0.3
	l-2.2,2.4C3.1,14.9,3,14.9,3,15c-0.1,0-0.1,0-0.2,0s-0.1,0-0.2,0c-0.1,0-0.1-0.1-0.2-0.1l-2.2-2.4c0-0.1-0.1-0.1-0.1-0.2
	c0-0.1,0-0.1,0-0.2c0-0.1,0-0.1,0-0.2c0-0.1,0.1-0.1,0.1-0.2l0.7-0.8c0-0.1,0.1-0.1,0.2-0.1c0.1,0,0.1,0,0.2,0c0.1,0,0.1,0,0.2,0
	c0.1,0,0.1,0.1,0.2,0.1l0.7,0.8c0,0.1,0.1,0.1,0.2,0.1c0.1,0,0.1,0,0.2,0s0.1,0,0.2,0c0.1,0,0.1-0.1,0.2-0.1l0.9-1l0.1-0.1L4.6,10
	l0-0.1l0.7-0.8c0-0.1,0.1-0.1,0.2-0.1c0.1,0,0.1,0,0.2,0c0.1,0,0.1,0,0.2,0C6,9.1,6,9.1,6.1,9.2z"/>
</svg>
